<?xml version="1.0" encoding="UTF-8" standalone="no"?>
<!-- Created with Inkscape (http://www.inkscape.org/) -->

<svg
   width="210mm"
   height="297mm"
   viewBox="0 0 210 297"
   version="1.1"
   id="svg1"
   xml:space="preserve"
   xmlns="http://www.w3.org/2000/svg"
   xmlns:svg="http://www.w3.org/2000/svg"><defs
     id="defs1" /><g
     id="layer1"><path
       style="fill:#000000"
       d="m 40.367056,210.26842 c -9.7874,-2.00428 -10.35781,-3.17985 -10.13002,-20.87715 0.16669,-12.95036 0.72839,-16.64178 2.73871,-17.99855 1.39095,-0.93877 5.40938,-3.45933 8.92984,-5.60126 9.51884,-5.79146 10.43677,-13.38406 1.86515,-15.42738 -6.52819,-1.55619 -8.17586,-3.63741 -8.17586,-10.32715 0,-5.52292 0.60847,-6.48402 5.61712,-8.87248 8.94386,-4.26503 9.68123,-13.78874 1.21159,-15.64873 -7.75831,-1.70378 -8.30287,-2.07769 -9.40164,-6.45554 -1.43801,-5.72949 0.70367,-8.67432 8.19467,-11.26777 3.42752,-1.18664 6.91226,-2.83794 7.74388,-3.66956 2.11571,-2.1157 -3.47317,-7.943964 -7.64693,-7.974471 -5.57017,-0.04071 -7.47118,-2.340722 -7.99332,-9.67098 -0.27453,-3.85401 -1.03111,-12.536094 -1.68131,-19.293521 -0.65019,-6.757426 -0.7307,-14.085029 -0.1789,-16.283561 l 1.00327,-3.997332 21.84755,0.376296 21.84755,0.376295 2.46184,10.332526 c 3.08476,12.946945 6.79082,14.68836 9.53502,4.480344 3.6271,-13.492318 3.62834,-13.493666 12.358974,-13.457698 l 7.96153,0.0328 1.03387,8.274797 c 1.1898,9.522825 4.42972,15.160486 7.16519,12.467884 0.96679,-0.951636 2.62559,-5.246598 3.68623,-9.54436 l 1.92842,-7.814114 9.81183,-0.470207 c 10.94743,-0.524628 10.55746,-0.926402 12.4221,12.798338 1.57881,11.620894 9.11245,9.021109 9.09453,-3.138433 -0.0134,-9.123978 1.4825,-9.985061 17.34681,-9.985061 13.3248,0 14.22787,0.217914 16.73027,4.037048 2.22122,3.390011 2.49251,6.768142 1.69265,21.077128 -0.52389,9.372044 -1.28503,18.471733 -1.69143,20.221533 -0.4064,1.749799 -0.79368,3.667193 -0.86062,4.260879 -0.41654,3.69424 -5.63497,6.12197 -11.33262,5.27217 -5.00469,-0.74644 -6.40965,-0.34588 -7.7822,2.21875 -1.90483,3.55922 -0.63674,8.35852 2.0738,7.84859 6.9987,-1.31667 12.21761,5.13366 10.23216,12.6465 -1.06172,4.01753 -2.78619,5.76901 -7.5611,7.67955 -6.27203,2.50957 -8.58015,5.27061 -6.6817,7.99283 0.57523,0.82484 2.11961,1.53411 3.43196,1.57617 6.17589,0.19794 11.22205,2.79119 12.07956,6.20775 1.09122,4.3478 -1.73532,10.31195 -4.88706,10.31195 -2.93229,0 -7.18133,6.13184 -6.13624,8.85528 0.44894,1.16992 3.95051,2.59714 7.78127,3.1716 8.46483,1.26938 9.00257,2.57793 7.80224,18.98631 -0.83393,11.39967 -3.88865,21.21812 -6.73858,21.65906 -5.44689,0.84274 -19.90788,1.11145 -25.24806,0.46916 -5.48207,-0.65936 -6.9306,-1.59687 -8.56542,-5.54368 -2.18516,-5.27544 -2.89311,-5.23633 -3.9435,0.21789 -1.22263,6.34864 -4.79347,8.54641 -13.05992,8.03806 -10.95017,-0.67338 -13.169,-2.32096 -13.169,-9.77857 0,-10.08714 -4.05974,-7.8166 -7.92171,4.43046 -2.06906,6.56141 -2.33143,6.76059 -8.905434,6.76059 -8.74694,0 -11.80594,-1.24689 -11.80594,-4.81227 0,-4.44067 -1.72213,-7.91354 -3.92418,-7.91354 -1.83735,0 -3.21191,1.50023 -9.47362,10.33972 -1.94339,2.74345 -4.07806,3.18407 -15.50506,3.20047 -7.28826,0.0105 -15.04096,-0.34745 -17.22821,-0.79536 z"
       id="path1" /></g></svg>
